<mxfile host="65bd71144e">
    <diagram id="Zw-Kq8prABVYi3YW612Y" name="logic (not used)">
        <mxGraphModel dx="429" dy="589" grid="1" gridSize="10" guides="1" tooltips="1" connect="1" arrows="1" fold="1" page="1" pageScale="1" pageWidth="827" pageHeight="1169" math="0" shadow="0">
            <root>
                <mxCell id="0"/>
                <mxCell id="1" parent="0"/>
                <mxCell id="15" value="ptr list" style="rounded=0;whiteSpace=wrap;html=1;" parent="1" vertex="1">
                    <mxGeometry x="80" y="570" width="160" height="260" as="geometry"/>
                </mxCell>
                <mxCell id="9" value="dict" style="rounded=0;whiteSpace=wrap;html=1;fontStyle=0" parent="1" vertex="1">
                    <mxGeometry x="280" y="570" width="190" height="260" as="geometry"/>
                </mxCell>
                <mxCell id="7" value="[window_login] xxx" style="rounded=0;whiteSpace=wrap;html=1;" parent="1" vertex="1">
                    <mxGeometry x="310" y="592.5" width="130" height="60" as="geometry"/>
                </mxCell>
                <mxCell id="8" value="[window_newuser] xxx" style="rounded=0;whiteSpace=wrap;html=1;" parent="1" vertex="1">
                    <mxGeometry x="310" y="752.5" width="130" height="60" as="geometry"/>
                </mxCell>
                <mxCell id="12" style="edgeStyle=none;html=1;" parent="1" source="11" target="8" edge="1">
                    <mxGeometry relative="1" as="geometry"/>
                </mxCell>
                <mxCell id="11" value="ptr" style="rounded=0;whiteSpace=wrap;html=1;" parent="1" vertex="1">
                    <mxGeometry x="100" y="752.5" width="120" height="60" as="geometry"/>
                </mxCell>
                <mxCell id="14" style="edgeStyle=none;html=1;" parent="1" source="13" target="7" edge="1">
                    <mxGeometry relative="1" as="geometry"/>
                </mxCell>
                <mxCell id="13" value="ptr" style="rounded=0;whiteSpace=wrap;html=1;" parent="1" vertex="1">
                    <mxGeometry x="100" y="590" width="120" height="60" as="geometry"/>
                </mxCell>
                <mxCell id="18" value="" style="edgeStyle=none;html=1;" parent="1" source="16" target="17" edge="1">
                    <mxGeometry relative="1" as="geometry"/>
                </mxCell>
                <mxCell id="16" value="window_newuser" style="rounded=0;whiteSpace=wrap;html=1;" parent="1" vertex="1">
                    <mxGeometry x="120" y="880" width="120" height="60" as="geometry"/>
                </mxCell>
                <mxCell id="17" value="make_newuser" style="rounded=0;whiteSpace=wrap;html=1;" parent="1" vertex="1">
                    <mxGeometry x="280" y="880" width="120" height="60" as="geometry"/>
                </mxCell>
            </root>
        </mxGraphModel>
    </diagram>
    <diagram id="fx9vaKAFhaMdquOwWTmA" name="design v1">
        <mxGraphModel dx="515" dy="383" grid="1" gridSize="10" guides="1" tooltips="1" connect="1" arrows="1" fold="1" page="1" pageScale="1" pageWidth="827" pageHeight="1169" math="0" shadow="0">
            <root>
                <mxCell id="B_HZuNb65u4hRVZUIt0q-0"/>
                <mxCell id="B_HZuNb65u4hRVZUIt0q-1" parent="B_HZuNb65u4hRVZUIt0q-0"/>
                <mxCell id="rSLzjj0IzonX1dFcuR3O-0" value="Login" style="rounded=0;whiteSpace=wrap;html=1;fontFamily=Helvetica;fontSize=12;fontColor=rgb(0, 0, 0);align=center;strokeColor=rgb(0, 0, 0);fillColor=rgb(255, 255, 255);verticalAlign=top;" parent="B_HZuNb65u4hRVZUIt0q-1" vertex="1">
                    <mxGeometry x="165" y="650" width="170" height="150" as="geometry"/>
                </mxCell>
                <mxCell id="rSLzjj0IzonX1dFcuR3O-1" value="Login success!" style="whiteSpace=wrap;html=1;" parent="B_HZuNb65u4hRVZUIt0q-1" vertex="1">
                    <mxGeometry x="140" y="850" width="120" height="60" as="geometry"/>
                </mxCell>
                <mxCell id="rSLzjj0IzonX1dFcuR3O-2" value="" style="rounded=0;whiteSpace=wrap;html=1;" parent="B_HZuNb65u4hRVZUIt0q-1" vertex="1">
                    <mxGeometry x="235" y="680" width="90" height="20" as="geometry"/>
                </mxCell>
                <mxCell id="rSLzjj0IzonX1dFcuR3O-3" value="login" style="rounded=0;whiteSpace=wrap;html=1;strokeWidth=1;dashed=1;" parent="B_HZuNb65u4hRVZUIt0q-1" vertex="1">
                    <mxGeometry x="175" y="680" width="50" height="20" as="geometry"/>
                </mxCell>
                <mxCell id="rSLzjj0IzonX1dFcuR3O-4" value="" style="rounded=0;whiteSpace=wrap;html=1;" parent="B_HZuNb65u4hRVZUIt0q-1" vertex="1">
                    <mxGeometry x="235" y="715" width="90" height="20" as="geometry"/>
                </mxCell>
                <mxCell id="rSLzjj0IzonX1dFcuR3O-5" value="pass" style="rounded=0;whiteSpace=wrap;html=1;strokeWidth=1;dashed=1;" parent="B_HZuNb65u4hRVZUIt0q-1" vertex="1">
                    <mxGeometry x="175" y="715" width="50" height="20" as="geometry"/>
                </mxCell>
                <mxCell id="rSLzjj0IzonX1dFcuR3O-6" value="" style="edgeStyle=none;html=1;" parent="B_HZuNb65u4hRVZUIt0q-1" source="rSLzjj0IzonX1dFcuR3O-7" target="rSLzjj0IzonX1dFcuR3O-40" edge="1">
                    <mxGeometry relative="1" as="geometry">
                        <mxPoint x="385" y="739.1666666666667" as="targetPoint"/>
                    </mxGeometry>
                </mxCell>
                <mxCell id="rSLzjj0IzonX1dFcuR3O-7" value="new" style="rounded=0;whiteSpace=wrap;html=1;" parent="B_HZuNb65u4hRVZUIt0q-1" vertex="1">
                    <mxGeometry x="235" y="750" width="50" height="20" as="geometry"/>
                </mxCell>
                <mxCell id="rSLzjj0IzonX1dFcuR3O-8" value="Fail" style="edgeStyle=none;html=1;" parent="B_HZuNb65u4hRVZUIt0q-1" source="rSLzjj0IzonX1dFcuR3O-9" target="rSLzjj0IzonX1dFcuR3O-12" edge="1">
                    <mxGeometry relative="1" as="geometry">
                        <mxPoint x="315" y="890" as="targetPoint"/>
                    </mxGeometry>
                </mxCell>
                <mxCell id="rSLzjj0IzonX1dFcuR3O-9" value="login" style="rounded=0;whiteSpace=wrap;html=1;" parent="B_HZuNb65u4hRVZUIt0q-1" vertex="1">
                    <mxGeometry x="175" y="750" width="50" height="20" as="geometry"/>
                </mxCell>
                <mxCell id="rSLzjj0IzonX1dFcuR3O-10" value="OK" style="edgeStyle=none;html=1;" parent="B_HZuNb65u4hRVZUIt0q-1" source="rSLzjj0IzonX1dFcuR3O-9" target="rSLzjj0IzonX1dFcuR3O-1" edge="1">
                    <mxGeometry relative="1" as="geometry"/>
                </mxCell>
                <mxCell id="rSLzjj0IzonX1dFcuR3O-12" value="Login don't match" style="whiteSpace=wrap;html=1;" parent="B_HZuNb65u4hRVZUIt0q-1" vertex="1">
                    <mxGeometry x="290" y="850" width="120" height="60" as="geometry"/>
                </mxCell>
                <mxCell id="rSLzjj0IzonX1dFcuR3O-19" value="design B" style="rounded=0;whiteSpace=wrap;html=1;" parent="B_HZuNb65u4hRVZUIt0q-1" vertex="1">
                    <mxGeometry x="165" y="560" width="120" height="60" as="geometry"/>
                </mxCell>
                <mxCell id="rSLzjj0IzonX1dFcuR3O-20" value="Login" style="rounded=0;whiteSpace=wrap;html=1;fontFamily=Helvetica;fontSize=12;fontColor=rgb(0, 0, 0);align=center;strokeColor=rgb(0, 0, 0);fillColor=rgb(255, 255, 255);verticalAlign=top;" parent="B_HZuNb65u4hRVZUIt0q-1" vertex="1">
                    <mxGeometry x="175" y="140" width="170" height="150" as="geometry"/>
                </mxCell>
                <mxCell id="rSLzjj0IzonX1dFcuR3O-21" value="Login success!" style="whiteSpace=wrap;html=1;" parent="B_HZuNb65u4hRVZUIt0q-1" vertex="1">
                    <mxGeometry x="150" y="340" width="120" height="60" as="geometry"/>
                </mxCell>
                <mxCell id="rSLzjj0IzonX1dFcuR3O-22" value="" style="rounded=0;whiteSpace=wrap;html=1;" parent="B_HZuNb65u4hRVZUIt0q-1" vertex="1">
                    <mxGeometry x="245" y="170" width="90" height="20" as="geometry"/>
                </mxCell>
                <mxCell id="rSLzjj0IzonX1dFcuR3O-23" value="login" style="rounded=0;whiteSpace=wrap;html=1;strokeWidth=1;dashed=1;" parent="B_HZuNb65u4hRVZUIt0q-1" vertex="1">
                    <mxGeometry x="185" y="170" width="50" height="20" as="geometry"/>
                </mxCell>
                <mxCell id="rSLzjj0IzonX1dFcuR3O-24" value="" style="rounded=0;whiteSpace=wrap;html=1;" parent="B_HZuNb65u4hRVZUIt0q-1" vertex="1">
                    <mxGeometry x="245" y="205" width="90" height="20" as="geometry"/>
                </mxCell>
                <mxCell id="rSLzjj0IzonX1dFcuR3O-25" value="pass" style="rounded=0;whiteSpace=wrap;html=1;strokeWidth=1;dashed=1;" parent="B_HZuNb65u4hRVZUIt0q-1" vertex="1">
                    <mxGeometry x="185" y="205" width="50" height="20" as="geometry"/>
                </mxCell>
                <mxCell id="rSLzjj0IzonX1dFcuR3O-26" value="" style="edgeStyle=orthogonalEdgeStyle;html=1;curved=1;" parent="B_HZuNb65u4hRVZUIt0q-1" source="rSLzjj0IzonX1dFcuR3O-27" target="rSLzjj0IzonX1dFcuR3O-31" edge="1">
                    <mxGeometry relative="1" as="geometry">
                        <Array as="points">
                            <mxPoint x="360" y="250"/>
                            <mxPoint x="360" y="215"/>
                        </Array>
                    </mxGeometry>
                </mxCell>
                <mxCell id="rSLzjj0IzonX1dFcuR3O-27" value="new" style="rounded=0;whiteSpace=wrap;html=1;" parent="B_HZuNb65u4hRVZUIt0q-1" vertex="1">
                    <mxGeometry x="245" y="240" width="50" height="20" as="geometry"/>
                </mxCell>
                <mxCell id="rSLzjj0IzonX1dFcuR3O-28" value="Fail" style="edgeStyle=none;html=1;" parent="B_HZuNb65u4hRVZUIt0q-1" source="rSLzjj0IzonX1dFcuR3O-29" target="rSLzjj0IzonX1dFcuR3O-32" edge="1">
                    <mxGeometry relative="1" as="geometry">
                        <mxPoint x="325" y="380" as="targetPoint"/>
                    </mxGeometry>
                </mxCell>
                <mxCell id="rSLzjj0IzonX1dFcuR3O-29" value="login" style="rounded=0;whiteSpace=wrap;html=1;" parent="B_HZuNb65u4hRVZUIt0q-1" vertex="1">
                    <mxGeometry x="185" y="240" width="50" height="20" as="geometry"/>
                </mxCell>
                <mxCell id="rSLzjj0IzonX1dFcuR3O-30" value="OK" style="edgeStyle=none;html=1;" parent="B_HZuNb65u4hRVZUIt0q-1" source="rSLzjj0IzonX1dFcuR3O-29" target="rSLzjj0IzonX1dFcuR3O-21" edge="1">
                    <mxGeometry relative="1" as="geometry"/>
                </mxCell>
                <mxCell id="rSLzjj0IzonX1dFcuR3O-31" value="New user" style="rounded=0;whiteSpace=wrap;html=1;fontFamily=Helvetica;fontSize=12;fontColor=rgb(0, 0, 0);align=center;strokeColor=rgb(0, 0, 0);fillColor=rgb(255, 255, 255);verticalAlign=top;" parent="B_HZuNb65u4hRVZUIt0q-1" vertex="1">
                    <mxGeometry x="395" y="140" width="170" height="150" as="geometry"/>
                </mxCell>
                <mxCell id="rSLzjj0IzonX1dFcuR3O-32" value="Login don't match" style="whiteSpace=wrap;html=1;" parent="B_HZuNb65u4hRVZUIt0q-1" vertex="1">
                    <mxGeometry x="300" y="340" width="120" height="60" as="geometry"/>
                </mxCell>
                <mxCell id="rSLzjj0IzonX1dFcuR3O-33" value="" style="rounded=0;whiteSpace=wrap;html=1;" parent="B_HZuNb65u4hRVZUIt0q-1" vertex="1">
                    <mxGeometry x="465" y="170" width="90" height="20" as="geometry"/>
                </mxCell>
                <mxCell id="rSLzjj0IzonX1dFcuR3O-34" value="login" style="rounded=0;whiteSpace=wrap;html=1;dashed=1;" parent="B_HZuNb65u4hRVZUIt0q-1" vertex="1">
                    <mxGeometry x="405" y="170" width="50" height="20" as="geometry"/>
                </mxCell>
                <mxCell id="rSLzjj0IzonX1dFcuR3O-35" value="" style="rounded=0;whiteSpace=wrap;html=1;" parent="B_HZuNb65u4hRVZUIt0q-1" vertex="1">
                    <mxGeometry x="465" y="205" width="90" height="20" as="geometry"/>
                </mxCell>
                <mxCell id="rSLzjj0IzonX1dFcuR3O-36" value="pass" style="rounded=0;whiteSpace=wrap;html=1;dashed=1;" parent="B_HZuNb65u4hRVZUIt0q-1" vertex="1">
                    <mxGeometry x="405" y="205" width="50" height="20" as="geometry"/>
                </mxCell>
                <mxCell id="owDjxXAC7FNBR-mWsRpI-0" style="edgeStyle=orthogonalEdgeStyle;html=1;endArrow=classic;endFill=1;entryX=1;entryY=0.75;entryDx=0;entryDy=0;" parent="B_HZuNb65u4hRVZUIt0q-1" source="rSLzjj0IzonX1dFcuR3O-37" target="rSLzjj0IzonX1dFcuR3O-20" edge="1">
                    <mxGeometry relative="1" as="geometry">
                        <Array as="points">
                            <mxPoint x="390" y="260"/>
                            <mxPoint x="390" y="252"/>
                        </Array>
                    </mxGeometry>
                </mxCell>
                <mxCell id="rSLzjj0IzonX1dFcuR3O-37" value="Confirm" style="rounded=0;whiteSpace=wrap;html=1;" parent="B_HZuNb65u4hRVZUIt0q-1" vertex="1">
                    <mxGeometry x="405" y="250" width="50" height="20" as="geometry"/>
                </mxCell>
                <mxCell id="owDjxXAC7FNBR-mWsRpI-1" style="edgeStyle=orthogonalEdgeStyle;html=1;endArrow=classic;endFill=1;entryX=1;entryY=0.75;entryDx=0;entryDy=0;" parent="B_HZuNb65u4hRVZUIt0q-1" source="rSLzjj0IzonX1dFcuR3O-38" target="rSLzjj0IzonX1dFcuR3O-20" edge="1">
                    <mxGeometry relative="1" as="geometry">
                        <Array as="points">
                            <mxPoint x="490" y="310"/>
                            <mxPoint x="380" y="310"/>
                            <mxPoint x="380" y="253"/>
                        </Array>
                    </mxGeometry>
                </mxCell>
                <mxCell id="rSLzjj0IzonX1dFcuR3O-38" value="Cancel" style="rounded=0;whiteSpace=wrap;html=1;" parent="B_HZuNb65u4hRVZUIt0q-1" vertex="1">
                    <mxGeometry x="465" y="250" width="50" height="20" as="geometry"/>
                </mxCell>
                <mxCell id="rSLzjj0IzonX1dFcuR3O-40" value="" style="shape=cylinder3;whiteSpace=wrap;html=1;boundedLbl=1;backgroundOutline=1;size=15;" parent="B_HZuNb65u4hRVZUIt0q-1" vertex="1">
                    <mxGeometry x="410" y="710" width="60" height="80" as="geometry"/>
                </mxCell>
            </root>
        </mxGraphModel>
    </diagram>
    <diagram name="design v2" id="q3sxz_RJIR82MXePsJ0S">
        <mxGraphModel dx="515" dy="383" grid="1" gridSize="10" guides="1" tooltips="1" connect="1" arrows="1" fold="1" page="1" pageScale="1" pageWidth="827" pageHeight="1169" math="0" shadow="0">
            <root>
                <mxCell id="c54Wu85l2vGGsBZ0P-HC-0"/>
                <mxCell id="c54Wu85l2vGGsBZ0P-HC-1" parent="c54Wu85l2vGGsBZ0P-HC-0"/>
                <mxCell id="tqLYdf0GL9P3cHoi1DaS-0" value="" style="shape=table;html=1;whiteSpace=wrap;startSize=0;container=1;collapsible=0;childLayout=tableLayout;dashed=1;" vertex="1" parent="c54Wu85l2vGGsBZ0P-HC-1">
                    <mxGeometry x="170" y="159" width="180" height="111" as="geometry"/>
                </mxCell>
                <mxCell id="tqLYdf0GL9P3cHoi1DaS-1" value="" style="shape=partialRectangle;html=1;whiteSpace=wrap;collapsible=0;dropTarget=0;pointerEvents=0;fillColor=none;top=0;left=0;bottom=0;right=0;points=[[0,0.5],[1,0.5]];portConstraint=eastwest;" vertex="1" parent="tqLYdf0GL9P3cHoi1DaS-0">
                    <mxGeometry width="180" height="41" as="geometry"/>
                </mxCell>
                <mxCell id="tqLYdf0GL9P3cHoi1DaS-2" value="" style="shape=partialRectangle;html=1;whiteSpace=wrap;connectable=0;fillColor=none;top=0;left=0;bottom=0;right=0;overflow=hidden;pointerEvents=1;" vertex="1" parent="tqLYdf0GL9P3cHoi1DaS-1">
                    <mxGeometry width="70" height="41" as="geometry">
                        <mxRectangle width="70" height="41" as="alternateBounds"/>
                    </mxGeometry>
                </mxCell>
                <mxCell id="tqLYdf0GL9P3cHoi1DaS-3" value="" style="shape=partialRectangle;html=1;whiteSpace=wrap;connectable=0;fillColor=none;top=0;left=0;bottom=0;right=0;overflow=hidden;pointerEvents=1;" vertex="1" parent="tqLYdf0GL9P3cHoi1DaS-1">
                    <mxGeometry x="70" width="110" height="41" as="geometry">
                        <mxRectangle width="110" height="41" as="alternateBounds"/>
                    </mxGeometry>
                </mxCell>
                <mxCell id="tqLYdf0GL9P3cHoi1DaS-5" value="" style="shape=partialRectangle;html=1;whiteSpace=wrap;collapsible=0;dropTarget=0;pointerEvents=0;fillColor=none;top=0;left=0;bottom=0;right=0;points=[[0,0.5],[1,0.5]];portConstraint=eastwest;" vertex="1" parent="tqLYdf0GL9P3cHoi1DaS-0">
                    <mxGeometry y="41" width="180" height="30" as="geometry"/>
                </mxCell>
                <mxCell id="tqLYdf0GL9P3cHoi1DaS-6" value="" style="shape=partialRectangle;html=1;whiteSpace=wrap;connectable=0;fillColor=none;top=0;left=0;bottom=0;right=0;overflow=hidden;pointerEvents=1;" vertex="1" parent="tqLYdf0GL9P3cHoi1DaS-5">
                    <mxGeometry width="70" height="30" as="geometry">
                        <mxRectangle width="70" height="30" as="alternateBounds"/>
                    </mxGeometry>
                </mxCell>
                <mxCell id="tqLYdf0GL9P3cHoi1DaS-7" value="" style="shape=partialRectangle;html=1;whiteSpace=wrap;connectable=0;fillColor=none;top=0;left=0;bottom=0;right=0;overflow=hidden;pointerEvents=1;" vertex="1" parent="tqLYdf0GL9P3cHoi1DaS-5">
                    <mxGeometry x="70" width="110" height="30" as="geometry">
                        <mxRectangle width="110" height="30" as="alternateBounds"/>
                    </mxGeometry>
                </mxCell>
                <mxCell id="tqLYdf0GL9P3cHoi1DaS-9" value="" style="shape=partialRectangle;html=1;whiteSpace=wrap;collapsible=0;dropTarget=0;pointerEvents=0;fillColor=none;top=0;left=0;bottom=0;right=0;points=[[0,0.5],[1,0.5]];portConstraint=eastwest;" vertex="1" parent="tqLYdf0GL9P3cHoi1DaS-0">
                    <mxGeometry y="71" width="180" height="40" as="geometry"/>
                </mxCell>
                <mxCell id="tqLYdf0GL9P3cHoi1DaS-10" value="" style="shape=partialRectangle;html=1;whiteSpace=wrap;connectable=0;fillColor=none;top=0;left=0;bottom=0;right=0;overflow=hidden;pointerEvents=1;" vertex="1" parent="tqLYdf0GL9P3cHoi1DaS-9">
                    <mxGeometry width="70" height="40" as="geometry">
                        <mxRectangle width="70" height="40" as="alternateBounds"/>
                    </mxGeometry>
                </mxCell>
                <mxCell id="tqLYdf0GL9P3cHoi1DaS-11" value="" style="shape=partialRectangle;html=1;whiteSpace=wrap;connectable=0;fillColor=none;top=0;left=0;bottom=0;right=0;overflow=hidden;pointerEvents=1;" vertex="1" parent="tqLYdf0GL9P3cHoi1DaS-9">
                    <mxGeometry x="70" width="110" height="40" as="geometry">
                        <mxRectangle width="110" height="40" as="alternateBounds"/>
                    </mxGeometry>
                </mxCell>
                <mxCell id="c54Wu85l2vGGsBZ0P-HC-2" value="Login" style="rounded=0;whiteSpace=wrap;html=1;fontFamily=Helvetica;fontSize=12;fontColor=rgb(0, 0, 0);align=center;strokeColor=rgb(0, 0, 0);fillColor=rgb(255, 255, 255);verticalAlign=top;" parent="c54Wu85l2vGGsBZ0P-HC-1" vertex="1">
                    <mxGeometry x="165" y="650" width="170" height="150" as="geometry"/>
                </mxCell>
                <mxCell id="c54Wu85l2vGGsBZ0P-HC-3" value="Login success!" style="whiteSpace=wrap;html=1;" parent="c54Wu85l2vGGsBZ0P-HC-1" vertex="1">
                    <mxGeometry x="140" y="850" width="120" height="60" as="geometry"/>
                </mxCell>
                <mxCell id="c54Wu85l2vGGsBZ0P-HC-4" value="" style="rounded=0;whiteSpace=wrap;html=1;" parent="c54Wu85l2vGGsBZ0P-HC-1" vertex="1">
                    <mxGeometry x="235" y="680" width="90" height="20" as="geometry"/>
                </mxCell>
                <mxCell id="c54Wu85l2vGGsBZ0P-HC-5" value="login" style="rounded=0;whiteSpace=wrap;html=1;strokeWidth=1;dashed=1;" parent="c54Wu85l2vGGsBZ0P-HC-1" vertex="1">
                    <mxGeometry x="175" y="680" width="50" height="20" as="geometry"/>
                </mxCell>
                <mxCell id="c54Wu85l2vGGsBZ0P-HC-6" value="" style="rounded=0;whiteSpace=wrap;html=1;" parent="c54Wu85l2vGGsBZ0P-HC-1" vertex="1">
                    <mxGeometry x="235" y="715" width="90" height="20" as="geometry"/>
                </mxCell>
                <mxCell id="c54Wu85l2vGGsBZ0P-HC-7" value="pass" style="rounded=0;whiteSpace=wrap;html=1;strokeWidth=1;dashed=1;" parent="c54Wu85l2vGGsBZ0P-HC-1" vertex="1">
                    <mxGeometry x="175" y="715" width="50" height="20" as="geometry"/>
                </mxCell>
                <mxCell id="c54Wu85l2vGGsBZ0P-HC-8" value="" style="edgeStyle=none;html=1;" parent="c54Wu85l2vGGsBZ0P-HC-1" source="c54Wu85l2vGGsBZ0P-HC-9" target="tqLYdf0GL9P3cHoi1DaS-18" edge="1">
                    <mxGeometry relative="1" as="geometry">
                        <mxPoint x="410" y="751.6666666666667" as="targetPoint"/>
                    </mxGeometry>
                </mxCell>
                <mxCell id="c54Wu85l2vGGsBZ0P-HC-9" value="new" style="rounded=0;whiteSpace=wrap;html=1;" parent="c54Wu85l2vGGsBZ0P-HC-1" vertex="1">
                    <mxGeometry x="235" y="750" width="50" height="20" as="geometry"/>
                </mxCell>
                <mxCell id="c54Wu85l2vGGsBZ0P-HC-10" value="Fail" style="edgeStyle=none;html=1;" parent="c54Wu85l2vGGsBZ0P-HC-1" source="c54Wu85l2vGGsBZ0P-HC-11" target="c54Wu85l2vGGsBZ0P-HC-13" edge="1">
                    <mxGeometry relative="1" as="geometry">
                        <mxPoint x="315" y="890" as="targetPoint"/>
                    </mxGeometry>
                </mxCell>
                <mxCell id="c54Wu85l2vGGsBZ0P-HC-11" value="login" style="rounded=0;whiteSpace=wrap;html=1;" parent="c54Wu85l2vGGsBZ0P-HC-1" vertex="1">
                    <mxGeometry x="175" y="750" width="50" height="20" as="geometry"/>
                </mxCell>
                <mxCell id="c54Wu85l2vGGsBZ0P-HC-12" value="OK" style="edgeStyle=none;html=1;" parent="c54Wu85l2vGGsBZ0P-HC-1" source="c54Wu85l2vGGsBZ0P-HC-11" target="c54Wu85l2vGGsBZ0P-HC-3" edge="1">
                    <mxGeometry relative="1" as="geometry"/>
                </mxCell>
                <mxCell id="c54Wu85l2vGGsBZ0P-HC-13" value="Login don't match" style="whiteSpace=wrap;html=1;" parent="c54Wu85l2vGGsBZ0P-HC-1" vertex="1">
                    <mxGeometry x="290" y="850" width="120" height="60" as="geometry"/>
                </mxCell>
                <mxCell id="c54Wu85l2vGGsBZ0P-HC-16" value="Login successfull!" style="whiteSpace=wrap;html=1;" parent="c54Wu85l2vGGsBZ0P-HC-1" vertex="1">
                    <mxGeometry x="150" y="340" width="120" height="60" as="geometry"/>
                </mxCell>
                <mxCell id="c54Wu85l2vGGsBZ0P-HC-17" value="" style="rounded=0;whiteSpace=wrap;html=1;" parent="c54Wu85l2vGGsBZ0P-HC-1" vertex="1">
                    <mxGeometry x="245" y="170" width="90" height="20" as="geometry"/>
                </mxCell>
                <mxCell id="c54Wu85l2vGGsBZ0P-HC-18" value="login" style="rounded=0;whiteSpace=wrap;html=1;strokeWidth=1;dashed=1;" parent="c54Wu85l2vGGsBZ0P-HC-1" vertex="1">
                    <mxGeometry x="185" y="170" width="50" height="20" as="geometry"/>
                </mxCell>
                <mxCell id="c54Wu85l2vGGsBZ0P-HC-19" value="" style="rounded=0;whiteSpace=wrap;html=1;" parent="c54Wu85l2vGGsBZ0P-HC-1" vertex="1">
                    <mxGeometry x="245" y="205" width="90" height="20" as="geometry"/>
                </mxCell>
                <mxCell id="c54Wu85l2vGGsBZ0P-HC-20" value="pass" style="rounded=0;whiteSpace=wrap;html=1;strokeWidth=1;dashed=1;" parent="c54Wu85l2vGGsBZ0P-HC-1" vertex="1">
                    <mxGeometry x="185" y="205" width="50" height="20" as="geometry"/>
                </mxCell>
                <mxCell id="bh8qob1nf_QCRIa4LV7_-1" style="edgeStyle=none;html=1;" parent="c54Wu85l2vGGsBZ0P-HC-1" source="c54Wu85l2vGGsBZ0P-HC-22" target="bh8qob1nf_QCRIa4LV7_-0" edge="1">
                    <mxGeometry relative="1" as="geometry"/>
                </mxCell>
                <mxCell id="c54Wu85l2vGGsBZ0P-HC-22" value="new" style="rounded=0;whiteSpace=wrap;html=1;" parent="c54Wu85l2vGGsBZ0P-HC-1" vertex="1">
                    <mxGeometry x="245" y="240" width="50" height="20" as="geometry"/>
                </mxCell>
                <mxCell id="c54Wu85l2vGGsBZ0P-HC-23" value="Fail" style="edgeStyle=none;html=1;" parent="c54Wu85l2vGGsBZ0P-HC-1" source="c54Wu85l2vGGsBZ0P-HC-24" target="c54Wu85l2vGGsBZ0P-HC-27" edge="1">
                    <mxGeometry relative="1" as="geometry">
                        <mxPoint x="325" y="380" as="targetPoint"/>
                    </mxGeometry>
                </mxCell>
                <mxCell id="c54Wu85l2vGGsBZ0P-HC-24" value="login" style="rounded=0;whiteSpace=wrap;html=1;" parent="c54Wu85l2vGGsBZ0P-HC-1" vertex="1">
                    <mxGeometry x="185" y="240" width="50" height="20" as="geometry"/>
                </mxCell>
                <mxCell id="c54Wu85l2vGGsBZ0P-HC-25" value="OK" style="edgeStyle=none;html=1;" parent="c54Wu85l2vGGsBZ0P-HC-1" source="c54Wu85l2vGGsBZ0P-HC-24" target="c54Wu85l2vGGsBZ0P-HC-16" edge="1">
                    <mxGeometry relative="1" as="geometry"/>
                </mxCell>
                <mxCell id="c54Wu85l2vGGsBZ0P-HC-27" value="Login don't match" style="whiteSpace=wrap;html=1;" parent="c54Wu85l2vGGsBZ0P-HC-1" vertex="1">
                    <mxGeometry x="300" y="340" width="120" height="60" as="geometry"/>
                </mxCell>
                <mxCell id="bh8qob1nf_QCRIa4LV7_-0" value="Login created!" style="whiteSpace=wrap;html=1;" parent="c54Wu85l2vGGsBZ0P-HC-1" vertex="1">
                    <mxGeometry x="400" y="220" width="120" height="60" as="geometry"/>
                </mxCell>
                <mxCell id="tqLYdf0GL9P3cHoi1DaS-17" value="" style="rounded=0;whiteSpace=wrap;html=1;fillColor=none;" vertex="1" parent="c54Wu85l2vGGsBZ0P-HC-1">
                    <mxGeometry x="170" y="159" width="180" height="111" as="geometry"/>
                </mxCell>
                <mxCell id="tqLYdf0GL9P3cHoi1DaS-18" value="Login created!" style="whiteSpace=wrap;html=1;" vertex="1" parent="c54Wu85l2vGGsBZ0P-HC-1">
                    <mxGeometry x="400" y="720" width="120" height="60" as="geometry"/>
                </mxCell>
            </root>
        </mxGraphModel>
    </diagram>
    <diagram id="nwG-k35j8JY0eMHkvugU" name="user case">
        <mxGraphModel dx="279" dy="383" grid="1" gridSize="10" guides="1" tooltips="1" connect="1" arrows="1" fold="1" page="1" pageScale="1" pageWidth="827" pageHeight="1169" math="0" shadow="0">
            <root>
                <mxCell id="8GIg7h6ndQrZFZMgF5go-0"/>
                <mxCell id="8GIg7h6ndQrZFZMgF5go-1" parent="8GIg7h6ndQrZFZMgF5go-0"/>
                <mxCell id="8GIg7h6ndQrZFZMgF5go-5" value="&amp;lt;extend&amp;gt;" style="edgeStyle=none;html=1;" parent="8GIg7h6ndQrZFZMgF5go-1" source="8GIg7h6ndQrZFZMgF5go-4" target="8GIg7h6ndQrZFZMgF5go-2" edge="1">
                    <mxGeometry relative="1" as="geometry">
                        <mxPoint x="240" y="390" as="targetPoint"/>
                    </mxGeometry>
                </mxCell>
                <mxCell id="8GIg7h6ndQrZFZMgF5go-2" value="Login" style="ellipse;whiteSpace=wrap;html=1;" parent="8GIg7h6ndQrZFZMgF5go-1" vertex="1">
                    <mxGeometry x="180" y="260" width="90" height="60" as="geometry"/>
                </mxCell>
                <mxCell id="8GIg7h6ndQrZFZMgF5go-6" value="" style="edgeStyle=none;html=1;endArrow=none;endFill=0;" parent="8GIg7h6ndQrZFZMgF5go-1" source="8GIg7h6ndQrZFZMgF5go-3" target="8GIg7h6ndQrZFZMgF5go-2" edge="1">
                    <mxGeometry relative="1" as="geometry"/>
                </mxCell>
                <mxCell id="8GIg7h6ndQrZFZMgF5go-3" value="Actor" style="shape=umlActor;verticalLabelPosition=bottom;verticalAlign=top;html=1;outlineConnect=0;" parent="8GIg7h6ndQrZFZMgF5go-1" vertex="1">
                    <mxGeometry x="60" y="260" width="30" height="60" as="geometry"/>
                </mxCell>
                <mxCell id="8GIg7h6ndQrZFZMgF5go-4" value="Create user" style="ellipse;whiteSpace=wrap;html=1;" parent="8GIg7h6ndQrZFZMgF5go-1" vertex="1">
                    <mxGeometry x="180" y="360" width="90" height="60" as="geometry"/>
                </mxCell>
            </root>
        </mxGraphModel>
    </diagram>
</mxfile>